<svg xmlns="http://www.w3.org/2000/svg" width="102.887" height="85.752" viewBox="0 0 102.887 85.752">
  <g id="Group_6051" data-name="Group 6051" transform="translate(-446.834 -41.124)">
    <g id="Group_5983" data-name="Group 5983" transform="translate(-551.979 -892.104)">
      <g id="accessibility-svgrepo-com" transform="translate(1023.795 948.593)">
        <circle id="Ellipse_46" data-name="Ellipse 46" cx="5.112" cy="5.112" r="5.112" transform="translate(34.7 2)" fill="#401e52"/>
        <path id="Path_104" data-name="Path 104" d="M39.489,23.028,29.2,24.639,36.991,15.5a2.124,2.124,0,0,0,.49-1.73,2.214,2.214,0,0,0-1.028-1.508L22.25,3.375a2.482,2.482,0,0,0-2.988.278L9.793,12.54l3.347,3.142,8.1-7.6,6.117,3.828L21.007,19.36a14.764,14.764,0,0,0-13.02,1.671l3.435,3.224A9.87,9.87,0,0,1,16.2,23c5.222,0,9.469,3.986,9.469,8.888a8.425,8.425,0,0,1-1.34,4.488L27.768,39.6a12.7,12.7,0,0,0,2.64-7.713,12.559,12.559,0,0,0-.343-2.877l7.445-1.164v12.93h4.735V25.219a2.164,2.164,0,0,0-.836-1.7,2.474,2.474,0,0,0-1.92-.495ZM16.2,40.773c-5.222,0-9.469-3.986-9.469-8.888A8.425,8.425,0,0,1,8.075,27.4L4.64,24.172A12.7,12.7,0,0,0,2,31.885c0,7.353,6.37,13.332,14.2,13.332a14.746,14.746,0,0,0,8.217-2.478l-3.435-3.224A9.87,9.87,0,0,1,16.2,40.773Z" transform="translate(0 1.68)" fill="#401e52"/>
      </g>
      <path id="Hexagon" d="M79.415,100.614H29.138L4,58.738,29.138,16.862H79.415l25.139,41.876Z" transform="translate(995.979 917.366)" fill="none" stroke="#3f1d51" stroke-width="2"/>
    </g>
  </g>
</svg>
