<svg xmlns="http://www.w3.org/2000/svg" width="102.887" height="85.752" viewBox="0 0 102.887 85.752">
  <g id="Group_6058" data-name="Group 6058" transform="translate(-446.834 -363.124)">
    <g id="Group_5990" data-name="Group 5990" transform="translate(373.554 -1369.916)">
      <path id="smart-work-artificial-intelligence-ai-svgrepo-com" d="M25.014,18.831a4.6,4.6,0,0,1-5.6,1.918c-2.184-.767-3.2-2.869-2.283-4.7a4.6,4.6,0,0,1,5.6-1.918c2.184.767,3.2,2.869,2.283,4.7Zm19.2,8.624a1.443,1.443,0,0,1-1.549,1.3H40.143v4.47c0,3.47-3.355,6.289-7.485,6.289H29.68v4.52H9.429V30.507C1.19,25.052-.24,15.027,6.233,8.088A20.493,20.493,0,0,1,21.143,2C29.759,2,37.7,7.438,39.349,13.409c.377,1.334.794,4.8.794,4.8l3.951,8.741a1.053,1.053,0,0,1,.119.5ZM29.184,16.312l2.422-1.268-1.013-2.085-2.8.534a7.771,7.771,0,0,0-1.946-1.651L26.5,9.506l-2.482-.867-1.529,2.035a10.34,10.34,0,0,0-2.78-.017L18.224,8.589l-2.5.851.635,2.335a7.811,7.811,0,0,0-1.966,1.635l-2.78-.55-1.052,2.085,2.422,1.284a6.16,6.16,0,0,0-.02,2.335l-2.422,1.284,1.013,2.085,2.78-.534a7.771,7.771,0,0,0,1.946,1.651l-.655,2.335,2.482.867,1.529-2.035a10.34,10.34,0,0,0,2.78.017l1.509,2.035,2.482-.851-.635-2.352a7.811,7.811,0,0,0,1.966-1.635l2.78.55L31.546,19.9l-2.422-1.284A4.752,4.752,0,0,0,29.184,16.312Z" transform="translate(101.527 1752.898)" fill="#3f1d51" stroke="#3f1d51" stroke-width="1"/>
      <path id="Hexagon" d="M79.415,100.614H29.138L4,58.738,29.138,16.862H79.415l25.139,41.876Z" transform="translate(70.446 1717.178)" fill="none" stroke="#3f1d51" stroke-width="2"/>
    </g>
  </g>
</svg>
