<svg xmlns="http://www.w3.org/2000/svg" width="102.887" height="85.752" viewBox="0 0 102.887 85.752">
  <g id="Group_6053" data-name="Group 6053" transform="translate(-1139.834 -43)">
    <g id="Group_5984" data-name="Group 5984" transform="translate(1066.554 -1153.34)">
      <g id="cloud-networked-svgrepo-com" transform="translate(102.322 1214.84)">
        <g id="Group_5584" data-name="Group 5584" transform="translate(0.053)">
          <path id="Path_128" data-name="Path 128" d="M12.749,23.243A20.041,20.041,0,0,1,42.01,14.365c.005-.12.008-.24.008-.361A8.92,8.92,0,0,0,28.258,6.5,10.422,10.422,0,0,0,8.517,7.788c-.235-.021-.474-.036-.718-.036a7.747,7.747,0,0,0,0,15.494C8.5,23.247,10.35,23.245,12.749,23.243Z" transform="translate(-0.053)" fill="#401e52"/>
          <path id="Path_129" data-name="Path 129" d="M4.182,33.455A1.594,1.594,0,0,0,2.59,35.061v4.285a1.592,1.592,0,1,0,3.183,0V35.061A1.594,1.594,0,0,0,4.182,33.455Z" transform="translate(0.019 0.955)" fill="#401e52"/>
          <path id="Path_130" data-name="Path 130" d="M4.182,23.044A1.6,1.6,0,0,0,2.59,24.651v4.283a1.592,1.592,0,1,0,3.183,0V24.651A1.594,1.594,0,0,0,4.182,23.044Z" transform="translate(0.019 0.658)" fill="#401e52"/>
          <path id="Path_131" data-name="Path 131" d="M13.152,39.195H8.869a1.591,1.591,0,1,0,0,3.182h4.284a1.591,1.591,0,1,0,0-3.182Z" transform="translate(0.153 1.119)" fill="#401e52"/>
          <path id="Path_132" data-name="Path 132" d="M30.723,14.765A16.01,16.01,0,1,0,46.732,30.774,16.027,16.027,0,0,0,30.723,14.765Zm-12.7,17.649h4.3a23.013,23.013,0,0,0,2.448,9.722A12.84,12.84,0,0,1,18.027,32.414Zm4.3-3.264h-4.3a12.838,12.838,0,0,1,6.751-9.724A23.039,23.039,0,0,0,22.33,29.15Zm6.808,13.386c-1.75-1.515-3.3-5.348-3.587-10.123h3.587Zm0-13.386H25.552c.286-4.854,1.837-8.622,3.587-10.135Zm3.182,13.386V32.414H35.9C35.609,37.187,34.072,41.022,32.321,42.537Zm0-13.386V19.015C34.072,20.528,35.607,24.3,35.9,29.15Zm11.1,0h-4.3a23.012,23.012,0,0,0-2.449-9.725A12.834,12.834,0,0,1,43.418,29.15ZM36.666,42.137a23,23,0,0,0,2.449-9.723h4.305A12.851,12.851,0,0,1,36.666,42.137Z" transform="translate(0.365 0.421)" fill="#401e52"/>
        </g>
      </g>
      <path id="Hexagon" d="M79.415,100.614H29.138L4,58.738,29.138,16.862H79.415l25.139,41.876Z" transform="translate(70.446 1180.479)" fill="none" stroke="#3f1d51" stroke-width="2"/>
    </g>
  </g>
</svg>
