<svg xmlns="http://www.w3.org/2000/svg" width="102.887" height="85.752" viewBox="0 0 102.887 85.752">
  <g id="Group_6057" data-name="Group 6057" transform="translate(-111.834 -363.124)">
    <g id="Group_5989" data-name="Group 5989" transform="translate(-889.609 -1636.768)">
      <g id="Group_5980" data-name="Group 5980" transform="translate(0 -4.293)">
        <g id="database-svgrepo-com" transform="translate(1032.432 2022.623)">
          <path id="Path_133" data-name="Path 133" d="M43.331,42.668A4.939,4.939,0,0,0,38.489,38.2a4.857,4.857,0,0,0-3.945,2.071,3.111,3.111,0,0,0-.538-.046,3.262,3.262,0,0,0-3.084,2.321,3.914,3.914,0,0,0-1.9,3.349,3.83,3.83,0,0,0,3.779,3.871h6.559c.037,0,.072,0,.1,0s.075,0,.114,0h2.624a3.657,3.657,0,0,0,1.124-7.1Zm-1.124,5.886-2.649,0-.1,0-6.649.005A2.612,2.612,0,0,1,30.243,45.9a2.682,2.682,0,0,1,1.471-2.4l.265-.13.062-.289a2.043,2.043,0,0,1,1.966-1.638,1.955,1.955,0,0,1,.621.1l.473.159.248-.433a3.6,3.6,0,0,1,3.14-1.853,3.728,3.728,0,0,1,3.651,3.727l.007.495.486.094a2.436,2.436,0,0,1-.427,4.815Z" transform="translate(-4.859 -9.47)" fill="#3f1d51"/>
          <path id="Path_134" data-name="Path 134" d="M23.082,37.158A6.529,6.529,0,0,1,28.3,34.419a9.4,9.4,0,0,1,5.939-2.033,9.555,9.555,0,0,1,5.176,1.495c.072-.053.154-.105.218-.158V28a17.489,17.489,0,0,1-3.814,1.441,54.817,54.817,0,0,1-13.185,1.645q-.991.025-1.978.025c-.66,0-1.322-.009-1.984-.026A54.682,54.682,0,0,1,5.459,29.432,17.4,17.4,0,0,1,1.676,28v5.722c2.16,1.809,9.408,3.477,18.978,3.477C21.483,37.2,22.289,37.182,23.082,37.158Z" transform="translate(-1.675 -7.395)" fill="#3f1d51"/>
          <path id="Path_135" data-name="Path 135" d="M18.858,24.067c.247.005.494.011.745.014q.519.007,1.05.007c.354,0,.7,0,1.05-.007.251,0,.5-.009.745-.014l.265,0c8.542-.219,14.915-1.775,16.917-3.45V14.889C35.936,16.924,28.126,18,20.654,18S5.371,16.924,1.676,14.889v5.722c2,1.677,8.375,3.233,16.917,3.45Z" transform="translate(-1.675 -3.932)" fill="#3f1d51"/>
          <path id="Path_136" data-name="Path 136" d="M39.631,6.883v-1.4a.483.483,0,0,0-.1-.279C38.676,2.582,32.127,0,20.654,0,9.208,0,2.665,2.569,1.787,5.181a.51.51,0,0,0-.111.3v1.4c2.153,1.8,9.349,3.466,18.978,3.466S37.478,8.685,39.631,6.883Z" transform="translate(-1.675)" fill="#3f1d51"/>
          <path id="Path_137" data-name="Path 137" d="M16.5,46.993a5.728,5.728,0,0,1,.76-2.831c-.122,0-.24,0-.365,0-7.516,0-12.7-1.394-15.219-3.166v4.993a.573.573,0,0,0,.071.275c.719,2.98,7.151,5.2,15.148,5.2.578,0,1.145-.015,1.705-.038A5.725,5.725,0,0,1,16.5,46.993Z" transform="translate(-1.675 -10.563)" fill="#3f1d51"/>
        </g>
        <path id="Hexagon" d="M79.415,100.614H29.138L4,58.738,29.138,16.862H79.415l25.139,41.876Z" transform="translate(998.609 1988.323)" fill="none" stroke="#3f1d51" stroke-width="2"/>
      </g>
    </g>
  </g>
</svg>
