<svg xmlns="http://www.w3.org/2000/svg" width="102.887" height="85.752" viewBox="0 0 102.887 85.752">
  <g id="Group_6055" data-name="Group 6055" transform="translate(-446.834 -202.124)">
    <g id="Group_5986" data-name="Group 5986" transform="translate(373.554 -2061.687)">
      <path id="global-server-svgrepo-com" d="M40.034,11.1h4.632a3.453,3.453,0,0,0,3.543-3.357V3.357A3.453,3.453,0,0,0,44.666,0H40.034a3.456,3.456,0,0,0-3.546,3.357V4.4h-3.01a3.123,3.123,0,0,0-3.2,3.029V21.641H25.718c-.614-6.169-6.107-11.013-12.778-11.013C5.862,10.628.1,16.083.1,22.789S5.862,34.95,12.941,34.95c6.671,0,12.164-4.843,12.778-11.013H30.28V38.148a3.122,3.122,0,0,0,3.2,3.029h3.01v1.045a3.455,3.455,0,0,0,3.546,3.357h4.632a3.453,3.453,0,0,0,3.543-3.357V37.836a3.453,3.453,0,0,0-3.543-3.357H40.034a3.456,3.456,0,0,0-3.546,3.357V38.88h-3.01a.755.755,0,0,1-.774-.733V23.937h3.783v1.045a3.455,3.455,0,0,0,3.546,3.357h4.632a3.453,3.453,0,0,0,3.543-3.357V20.6a3.453,3.453,0,0,0-3.543-3.357H40.034A3.456,3.456,0,0,0,36.488,20.6v1.045H32.7V7.431a.755.755,0,0,1,.774-.733h3.01V7.744A3.455,3.455,0,0,0,40.034,11.1Zm-31.1,2.316A11.638,11.638,0,0,0,7.084,17a14.834,14.834,0,0,0-3.814,1.534A10.493,10.493,0,0,1,8.937,13.417ZM2.363,21.465a8.187,8.187,0,0,1,4.231-2.613,19.57,19.57,0,0,0-.385,3.218H2.3C2.315,21.866,2.336,21.665,2.363,21.465Zm.044,2.909c-.037-.222-.076-.441-.1-.667h3.9a19.633,19.633,0,0,0,.385,3.219A8.325,8.325,0,0,1,2.407,24.374Zm1,2.955a14.942,14.942,0,0,0,3.672,1.452,12.018,12.018,0,0,0,1.633,3.294A10.517,10.517,0,0,1,3.411,27.329Zm8.664,5.458A6.212,6.212,0,0,1,9.057,29.2a24.163,24.163,0,0,0,3.019.277Zm0-4.946a22.025,22.025,0,0,1-3.609-.424,17.56,17.56,0,0,1-.53-3.708h4.14Zm0-5.77H7.936a17.572,17.572,0,0,1,.53-3.708,22.262,22.262,0,0,1,3.609-.424V22.07Zm0-5.767a24.389,24.389,0,0,0-3.019.278,6.2,6.2,0,0,1,3.019-3.587Zm10.537,2.228A14.834,14.834,0,0,0,18.8,17a11.646,11.646,0,0,0-1.853-3.579A10.494,10.494,0,0,1,22.613,18.531Zm-8.807-5.537a6.2,6.2,0,0,1,3.019,3.587,24.375,24.375,0,0,0-3.019-.278Zm0,4.944a22.255,22.255,0,0,1,3.609.424,17.483,17.483,0,0,1,.53,3.708h-4.14Zm0,5.77h4.14a17.471,17.471,0,0,1-.53,3.708,22.018,22.018,0,0,1-3.609.424V23.707Zm0,9.079V29.474a24.146,24.146,0,0,0,3.019-.277A6.212,6.212,0,0,1,13.806,32.786Zm3.36-.712A11.938,11.938,0,0,0,18.8,28.781a15,15,0,0,0,3.672-1.452A10.519,10.519,0,0,1,17.166,32.075Zm6.309-7.7a8.322,8.322,0,0,1-4.184,2.551,19.82,19.82,0,0,0,.382-3.218h3.9C23.55,23.933,23.513,24.153,23.475,24.374Zm-3.8-2.3a19.79,19.79,0,0,0-.382-3.218,8.2,8.2,0,0,1,4.228,2.613c.027.2.047.4.063.6Z" transform="translate(97.531 2283.897)" fill="#401e52"/>
      <path id="Hexagon" d="M79.415,100.614H29.138L4,58.738,29.138,16.862H79.415l25.139,41.876Z" transform="translate(70.446 2247.949)" fill="none" stroke="#3f1d51" stroke-width="2"/>
    </g>
  </g>
</svg>
