<svg xmlns="http://www.w3.org/2000/svg" width="102.887" height="85.752" viewBox="0 0 102.887 85.752">
  <g id="Group_6050" data-name="Group 6050" transform="translate(-107.834 -41.124)">
    <g id="Group_6046" data-name="Group 6046">
      <g id="Group_5982" data-name="Group 5982" transform="translate(34.554 -892.104)">
        <g id="employees-svgrepo-com" transform="translate(101.952 871.574) rotate(1)">
          <g id="Group_5570" data-name="Group 5570" transform="translate(31.948 86.028)">
            <g id="Group_5569" data-name="Group 5569">
              <path id="Path_112" data-name="Path 112" d="M346.518,86.028a7.571,7.571,0,0,0-3.243.726,11.231,11.231,0,0,1,0,13.788,7.62,7.62,0,1,0,3.243-14.515Z" transform="translate(-343.275 -86.028)" fill="#401e52"/>
            </g>
          </g>
          <g id="Group_5572" data-name="Group 5572" transform="translate(33.844 104.902)">
            <g id="Group_5571" data-name="Group 5571" transform="translate(0 0)">
              <path id="Path_113" data-name="Path 113" d="M363.212,271.182q-.676,0-1.347.065a17.693,17.693,0,0,1,3.643,3.836,17.5,17.5,0,0,1,3.075,8.243,17.711,17.711,0,0,1,.094,1.822,5.441,5.441,0,0,1-.313,1.822h6.993a1.822,1.822,0,0,0,1.822-1.822A13.982,13.982,0,0,0,363.212,271.182Z" transform="translate(-361.865 -271.182)" fill="#401e52"/>
            </g>
          </g>
          <g id="Group_5574" data-name="Group 5574" transform="translate(6.346 86.028)">
            <g id="Group_5573" data-name="Group 5573" transform="translate(0 0)">
              <path id="Path_114" data-name="Path 114" d="M71.336,97.333A11.23,11.23,0,0,1,73.08,86.755a7.621,7.621,0,1,0,0,13.788,11.219,11.219,0,0,1-1.744-3.211Z" transform="translate(-62.216 -86.029)" fill="#401e52"/>
            </g>
          </g>
          <g id="Group_5576" data-name="Group 5576" transform="translate(0 104.902)">
            <g id="Group_5575" data-name="Group 5575" transform="translate(0 0)">
              <path id="Path_115" data-name="Path 115" d="M13.966,271.182A13.982,13.982,0,0,0,0,285.148a1.822,1.822,0,0,0,1.822,1.822H8.814a5.443,5.443,0,0,1-.313-1.822,17.74,17.74,0,0,1,.094-1.822,17.5,17.5,0,0,1,3.075-8.243,17.693,17.693,0,0,1,3.643-3.836Q14.643,271.183,13.966,271.182Z" transform="translate(0 -271.182)" fill="#401e52"/>
            </g>
          </g>
          <g id="Group_5578" data-name="Group 5578" transform="translate(16.958 86.028)">
            <g id="Group_5577" data-name="Group 5577">
              <path id="Path_116" data-name="Path 116" d="M195.982,90.828a7.593,7.593,0,1,0,.543,2.82A7.623,7.623,0,0,0,195.982,90.828Z" transform="translate(-181.284 -86.028)" fill="#401e52"/>
            </g>
          </g>
          <g id="Group_5580" data-name="Group 5580" transform="translate(10.613 105.021)">
            <g id="Group_5579" data-name="Group 5579">
              <path id="Path_117" data-name="Path 117" d="M146.887,284.372a13.977,13.977,0,0,0-12.026-12.026v11.419a1.822,1.822,0,1,1-3.643,0V272.346a13.889,13.889,0,0,0-6.2,2.422,13.94,13.94,0,0,0-5.943,11.426,1.822,1.822,0,0,0,1.822,1.822h24.289a1.822,1.822,0,0,0,1.822-1.822A14.035,14.035,0,0,0,146.887,284.372Z" transform="translate(-119.074 -272.346)" fill="none" stroke="#401e52" stroke-width="3"/>
            </g>
          </g>
        </g>
        <path id="Hexagon" d="M79.415,100.614H29.138L4,58.738,29.138,16.862H79.415l25.139,41.876Z" transform="translate(70.446 917.366)" fill="none" stroke="#3f1d51" stroke-width="2"/>
      </g>
    </g>
  </g>
</svg>
