<svg xmlns="http://www.w3.org/2000/svg" width="102.887" height="85.752" viewBox="0 0 102.887 85.752">
  <g id="Group_6059" data-name="Group 6059" transform="translate(-785.834 -363.124)">
    <g id="Group_5991" data-name="Group 5991" transform="translate(-212.979 -1369.916)">
      <g id="security-svgrepo-com" transform="translate(1027.757 1722.33)">
        <g id="Group_5929" data-name="Group 5929" transform="translate(0 35.456)">
          <path id="Path_1801" data-name="Path 1801" d="M348.473,278.191c-.923.379-2.993,1.079-3.907,1.584a4.55,4.55,0,0,1,1.049.933c.058-.039.117-.087.185-.126l.671-.379c.982-.564,3.081-1.331,4.159-1.827A2.174,2.174,0,0,0,348.473,278.191Z" transform="translate(-312.863 -251.472)" fill="#3f1d51"/>
          <path id="Path_1802" data-name="Path 1802" d="M7.892,299.741a2.027,2.027,0,0,0-1.918-1.079l-3.827.282a2.383,2.383,0,0,0-2.141,2.585l.612,9.232a2.345,2.345,0,0,0,2.465,2.245l3.827-.282a2.062,2.062,0,0,0,1.752-1.331l16.792.787a8.359,8.359,0,0,0,5.273-.972l.482-.272,12.7-8.085A2.343,2.343,0,0,0,45,301a1.853,1.853,0,0,0-1.677-2.051c-.862-.068-2.641.982-3.123,1.244a54.483,54.483,0,0,0-5.727,3.625l-.371.262a6.582,6.582,0,0,1-2.3,1.03A66.88,66.88,0,0,1,20.5,306.3l-.389.019a.584.584,0,0,1-.6-.515.6.6,0,0,1,.51-.69l9.972-1.03a2.274,2.274,0,0,0,1.853-2.507,2.165,2.165,0,0,0-2.28-2.041l-8.869-.117a9.054,9.054,0,0,1-2.15-.36C12.832,297.243,9.607,298.954,7.892,299.741Zm-3.42,11.088a1.372,1.372,0,0,1,0-2.741,1.372,1.372,0,0,1,0,2.741Z" transform="translate(0 -268.012)" fill="#3f1d51"/>
          <path id="Path_1803" data-name="Path 1803" d="M364.088,293.772A56.636,56.636,0,0,1,369.8,290.4a11.4,11.4,0,0,1,1.516-.69,2.162,2.162,0,0,0-2.177-.185c-1.5.612-4.257,1.992-5.656,2.789a.138.138,0,0,0-.019.058,4.283,4.283,0,0,1,.2.943,5.073,5.073,0,0,1,.01.768C363.806,293.976,363.952,293.879,364.088,293.772Z" transform="translate(-330.333 -261.382)" fill="#3f1d51"/>
          <path id="Path_1804" data-name="Path 1804" d="M178.4,40.539a1.65,1.65,0,0,0-1.555-1.72l-.418-.049a15.055,15.055,0,0,1-1.584-.243,15.364,15.364,0,0,1-5.568-2.614,1.951,1.951,0,0,0-1.156-.457,1.9,1.9,0,0,0-1.147.457,14.463,14.463,0,0,1-7.434,2.877,1.641,1.641,0,0,0-1.71,1.817v2.449c0,1.652-.01,3.3,0,4.947a9.435,9.435,0,0,0,.253,2.119,9.547,9.547,0,0,0,2.663,4.606,18.246,18.246,0,0,0,6.773,4.2,1.993,1.993,0,0,0,.593.1h0a1.738,1.738,0,0,0,.748-.155l.719-.311c.593-.253,1.176-.515,1.778-.816a14.919,14.919,0,0,0,5.2-4.286,8.32,8.32,0,0,0,1.808-4.723c.058-1.108.049-2.216.049-3.294Zm-2.517,8.076a5.83,5.83,0,0,1-1.322,3.353,12.331,12.331,0,0,1-4.344,3.567c-.544.272-1.088.505-1.642.748-.155.068-.311.136-.476.2V47.468h-7.813q-.015-2.2,0-4.4V41.219a16.874,16.874,0,0,0,7.813-3.081v9.32h7.8C175.9,47.847,175.892,48.235,175.882,48.614Z" transform="translate(-143.746 -35.456)" fill="#3f1d51"/>
        </g>
      </g>
      <path id="Hexagon" d="M79.415,100.614H29.138L4,58.738,29.138,16.862H79.415l25.139,41.876Z" transform="translate(995.979 1717.178)" fill="none" stroke="#3f1d51" stroke-width="2"/>
    </g>
  </g>
</svg>
