<svg xmlns="http://www.w3.org/2000/svg" width="102.887" height="85.752" viewBox="0 0 102.887 85.752">
  <g id="Group_6054" data-name="Group 6054" transform="translate(-109.834 -202.124)">
    <g id="Group_5985" data-name="Group 5985" transform="translate(-891.609 -994.216)">
      <g id="web-development-svgrepo-com" transform="translate(1032.112 1219.771)">
        <g id="Group_5583" data-name="Group 5583">
          <g id="Group_5582" data-name="Group 5582">
            <path id="Path_118" data-name="Path 118" d="M30.479,53.676a2.043,2.043,0,0,1-.6-.588,2.149,2.149,0,0,1-.191-.35H3.047v-27.3h36.16V43.263A2.028,2.028,0,0,1,40.9,44.584a1.954,1.954,0,0,1,.791-.248,1.934,1.934,0,0,1,.564.033V18.632a2.594,2.594,0,0,0-2.539-2.64H2.539A2.594,2.594,0,0,0,0,18.632V53.266a2.594,2.594,0,0,0,2.539,2.64H30.248a2.15,2.15,0,0,1-.14-1.464A2.121,2.121,0,0,1,30.479,53.676Zm5.94-33.25a.957.957,0,0,1,.938-.975h.938a.957.957,0,0,1,.938.975v1.1a.957.957,0,0,1-.938.975h-.938a.957.957,0,0,1-.938-.975Zm-4.36,0A.957.957,0,0,1,33,19.451h.938a.957.957,0,0,1,.938.975v1.1a.957.957,0,0,1-.938.975H33a.957.957,0,0,1-.938-.975Zm-4.36,0a.957.957,0,0,1,.938-.975h.938a.957.957,0,0,1,.938.975v1.1a.957.957,0,0,1-.938.975h-.938a.957.957,0,0,1-.938-.975Z" transform="translate(0 -15.992)" fill="#3f1d51"/>
            <path id="Path_119" data-name="Path 119" d="M301.444,280.407l-.259-1.468a.364.364,0,0,0-.421-.295l-1.305.23a4.9,4.9,0,0,0-.594-1.027l.853-1.016a.363.363,0,0,0-.045-.512l-1.141-.958a.364.364,0,0,0-.512.045l-.852,1.015a4.875,4.875,0,0,0-1.116-.406V274.69a.364.364,0,0,0-.363-.364H294.2a.364.364,0,0,0-.363.364v1.325a4.873,4.873,0,0,0-1.115.406l-.852-1.015a.364.364,0,0,0-.512-.045l-1.142.958a.364.364,0,0,0-.045.512l.853,1.016a4.91,4.91,0,0,0-.594,1.027l-1.305-.23a.364.364,0,0,0-.421.295l-.259,1.468a.363.363,0,0,0,.295.421l1.306.23a4.9,4.9,0,0,0,.205,1.169l-1.148.663a.363.363,0,0,0-.133.5l.745,1.291a.363.363,0,0,0,.5.133l1.149-.663a4.9,4.9,0,0,0,.909.763l-.454,1.246a.364.364,0,0,0,.217.466l1.4.51a.363.363,0,0,0,.466-.217l.454-1.246a4.93,4.93,0,0,0,.593.036,4.98,4.98,0,0,0,.593-.036l.454,1.246a.363.363,0,0,0,.342.239.359.359,0,0,0,.124-.022l1.4-.51a.364.364,0,0,0,.217-.466l-.454-1.246a4.925,4.925,0,0,0,.909-.763l1.149.663a.364.364,0,0,0,.182.049.371.371,0,0,0,.094-.012.364.364,0,0,0,.221-.169l.745-1.291a.363.363,0,0,0-.133-.5l-1.148-.662a4.9,4.9,0,0,0,.205-1.169l1.306-.23a.362.362,0,0,0,.235-.15A.356.356,0,0,0,301.444,280.407Zm-6.5,2.332a2,2,0,1,1,2-2A2,2,0,0,1,294.942,282.739Z" transform="translate(-256.449 -244.105)" fill="#3f1d51"/>
            <g id="Group_5581" data-name="Group 5581" transform="translate(9.088 13.423)">
              <path id="Path_120" data-name="Path 120" d="M85.764,170.975a1.217,1.217,0,0,0-.7-1.1l-3.9-1.814,3.9-1.814a1.218,1.218,0,0,0,.7-1.1v-.032a1.211,1.211,0,0,0-1.214-1.212,1.22,1.22,0,0,0-.511.112l-6.243,2.9a1.218,1.218,0,0,0-.7,1.1v.087a1.219,1.219,0,0,0,.7,1.1l6.243,2.9a1.214,1.214,0,0,0,1.725-1.1v-.032Z" transform="translate(-77.094 -160.445)" fill="#3f1d51"/>
              <path id="Path_121" data-name="Path 121" d="M169.24,129.48a1.217,1.217,0,0,0-.98-.5h-.031a1.21,1.21,0,0,0-1.156.843l-4.113,12.745a1.214,1.214,0,0,0,1.156,1.583h.031a1.209,1.209,0,0,0,1.155-.843l4.113-12.743A1.216,1.216,0,0,0,169.24,129.48Z" transform="translate(-154.411 -128.982)" fill="#3f1d51"/>
              <path id="Path_122" data-name="Path 122" d="M235.462,166.917l-6.243-2.9a1.214,1.214,0,0,0-1.725,1.1v.032a1.219,1.219,0,0,0,.7,1.1l3.9,1.814-3.9,1.814a1.217,1.217,0,0,0-.7,1.1v.032a1.214,1.214,0,0,0,1.725,1.1l6.243-2.9a1.218,1.218,0,0,0,.7-1.1v-.087A1.219,1.219,0,0,0,235.462,166.917Z" transform="translate(-212.609 -160.446)" fill="#3f1d51"/>
            </g>
          </g>
        </g>
      </g>
      <path id="Hexagon" d="M79.415,100.614H29.138L4,58.738,29.138,16.862H79.415l25.139,41.876Z" transform="translate(998.609 1180.479)" fill="none" stroke="#3f1d51" stroke-width="2"/>
    </g>
  </g>
</svg>
