<svg xmlns="http://www.w3.org/2000/svg" width="102.887" height="85.752" viewBox="0 0 102.887 85.752">
  <g id="Group_6060" data-name="Group 6060" transform="translate(-1139.834 -347.749)">
    <g id="Group_5992" data-name="Group 5992" transform="translate(138.391 -1934)">
      <g id="programming-process-svgrepo-com" transform="translate(1034.386 2285.591)">
        <g id="Group_5931" data-name="Group 5931" transform="translate(0 13.147)">
          <g id="Group_5930" data-name="Group 5930" transform="translate(0 0)">
            <path id="Path_1805" data-name="Path 1805" d="M0,180.9l14.271,8.5,14.28-8.5L14.271,172.4Z" transform="translate(0 -158.229)" fill="#3f1d51"/>
            <path id="Path_1806" data-name="Path 1806" d="M111.119,106.765v3.729h-1.863l2.62,2.623,2.611-2.623h-1.854v-3.729Z" transform="translate(-99.662 -98.066)" fill="#3f1d51"/>
            <path id="Path_1807" data-name="Path 1807" d="M111.119,340.764v3.729h-1.863l2.62,2.616,2.611-2.616h-1.854v-3.729Z" transform="translate(-99.662 -310.321)" fill="#3f1d51"/>
            <path id="Path_1808" data-name="Path 1808" d="M281.424,231.6l-5.4,0v1.523l5.4,0v1.866l2.618-2.625-2.618-2.618Z" transform="translate(-252.079 -209.549)" fill="#3f1d51"/>
            <path id="Path_1809" data-name="Path 1809" d="M30.372,420.389H46.62l4.123-8.117H34.488Z" transform="translate(-27.18 -375.389)" fill="#3f1d51"/>
            <path id="Path_1810" data-name="Path 1810" d="M369.1,209.312h-6.029a4.564,4.564,0,0,0,0,9.128H369.1a4.564,4.564,0,0,0,0-9.128Z" transform="translate(-328.655 -191.246)" fill="#3f1d51"/>
            <path id="Path_1811" data-name="Path 1811" d="M54.4,22.273h9.366a4.563,4.563,0,1,0,0-9.126H54.4a4.563,4.563,0,1,0,0,9.126Z" transform="translate(-44.593 -13.147)" fill="#3f1d51"/>
          </g>
        </g>
      </g>
      <path id="Hexagon" d="M79.415,100.614H29.138L4,58.738,29.138,16.862H79.415l25.139,41.876Z" transform="translate(998.609 2265.888)" fill="none" stroke="#3f1d51" stroke-width="2"/>
    </g>
  </g>
</svg>
