<svg xmlns="http://www.w3.org/2000/svg" width="102.887" height="85.752" viewBox="0 0 102.887 85.752">
  <g id="Group_6056" data-name="Group 6056" transform="translate(-785.834 -202.124)">
    <g id="Group_5987" data-name="Group 5987" transform="translate(712.554 -1262.566)">
      <g id="quality-medal-svgrepo-com_1_" data-name="quality-medal-svgrepo-com (1)" transform="translate(50.709 1483.189)">
        <g id="Group_5921" data-name="Group 5921" transform="translate(59.613 35.803)">
          <g id="Group_5920" data-name="Group 5920" transform="translate(0)">
            <path id="Path_1796" data-name="Path 1796" d="M110.5,391.752a5.825,5.825,0,0,1-6.6.988,6.011,6.011,0,0,1-2.03-1.575l-3.054,6.754a.587.587,0,0,0,.692.807l2.223-.619a2.831,2.831,0,0,1,3.312,1.5l1,2.078a.587.587,0,0,0,1.063-.014l4.857-10.743A3.644,3.644,0,0,0,110.5,391.752Z" transform="translate(-98.758 -390.926)" fill="#3f1d51"/>
          </g>
        </g>
        <g id="Group_5923" data-name="Group 5923" transform="translate(75.207 35.803)">
          <g id="Group_5922" data-name="Group 5922" transform="translate(0)">
            <path id="Path_1797" data-name="Path 1797" d="M282.174,397.919l-3.053-6.754a6.009,6.009,0,0,1-2.03,1.575,5.825,5.825,0,0,1-6.6-.988,3.644,3.644,0,0,0-1.47-.826l4.857,10.743a.587.587,0,0,0,1.064.014l1-2.078a2.831,2.831,0,0,1,3.312-1.5l2.223.619a.587.587,0,0,0,.693-.807Z" transform="translate(-269.022 -390.926)" fill="#3f1d51"/>
          </g>
        </g>
        <g id="Group_5925" data-name="Group 5925" transform="translate(55.666)">
          <g id="Group_5924" data-name="Group 5924" transform="translate(0)">
            <path id="Path_1798" data-name="Path 1798" d="M90.758,19.031a5.961,5.961,0,0,1-1.791-7.849,3.684,3.684,0,0,0-4.272-5.358A5.961,5.961,0,0,1,77.44,2.331a3.684,3.684,0,0,0-6.852,0,5.961,5.961,0,0,1-7.254,3.493,3.684,3.684,0,0,0-4.272,5.358,5.961,5.961,0,0,1-1.791,7.849,3.683,3.683,0,0,0,1.525,6.681,5.961,5.961,0,0,1,5.02,6.294,3.684,3.684,0,0,0,6.174,2.973,5.961,5.961,0,0,1,8.051,0,3.684,3.684,0,0,0,6.174-2.973,5.961,5.961,0,0,1,5.02-6.294,3.684,3.684,0,0,0,1.525-6.681ZM74.014,30.766A12.054,12.054,0,1,1,86.068,18.711,12.068,12.068,0,0,1,74.014,30.766Z" transform="translate(-55.666 0)" fill="#3f1d51"/>
          </g>
        </g>
        <g id="Group_5927" data-name="Group 5927" transform="translate(64.207 8.904)">
          <g id="Group_5926" data-name="Group 5926" transform="translate(0)">
            <path id="Path_1799" data-name="Path 1799" d="M158.727,97.225a9.807,9.807,0,1,0,9.807,9.807A9.818,9.818,0,0,0,158.727,97.225Zm5.026,8.856-6.1,4.458a1.124,1.124,0,0,1-1.583-.262l-1.826-2.6a1.124,1.124,0,1,1,1.839-1.292l1.168,1.663,5.179-3.783a1.124,1.124,0,1,1,1.326,1.815Z" transform="translate(-148.92 -97.225)" fill="#3f1d51"/>
          </g>
        </g>
      </g>
      <path id="Hexagon" d="M79.415,100.614H29.138L4,58.738,29.138,16.862H79.415l25.139,41.876Z" transform="translate(70.446 1448.828)" fill="none" stroke="#3f1d51" stroke-width="2"/>
    </g>
  </g>
</svg>
