<svg xmlns="http://www.w3.org/2000/svg" width="102.887" height="85.752" viewBox="0 0 102.887 85.752">
  <g id="Group_6061" data-name="Group 6061" transform="translate(-1139.834 -202.124)">
    <g id="Group_5988" data-name="Group 5988" transform="translate(138.391 -1262.094)">
      <g id="sustainable-sustainability-svgrepo-com" transform="translate(1028.66 1483.189)">
        <g id="Group_5957" data-name="Group 5957" transform="translate(8.626 8.626)">
          <g id="Group_5956" data-name="Group 5956">
            <path id="Path_4707" data-name="Path 4707" d="M105.335,86.506a15.594,15.594,0,1,0-23.273,16.987c.4.241.8.461,1.209.665.025.013.05.026.076.038a15.44,15.44,0,0,0,6.806,1.584,15.7,15.7,0,0,0,3.7-.445,15.594,15.594,0,0,0,11.481-18.828ZM85.913,78.413v0l-2.87,2.5-.886-.353A12.513,12.513,0,0,1,85.913,78.413ZM82.543,93.85l-.213.236a3.592,3.592,0,0,0-.881,3.032l.415,2.427a12.564,12.564,0,0,1-3.839-12.382l3.26,1.866a.543.543,0,0,1,.256.6,3.6,3.6,0,0,0,.879,3.364l.114.12A.544.544,0,0,1,82.543,93.85Zm8.537,8.814-.118-.722a1.1,1.1,0,0,1,1.262.435l.091.135Q91.7,102.618,91.081,102.664Zm9.791-5.965a12.449,12.449,0,0,1-5.492,4.867l-.605-.9a4.171,4.171,0,0,0-5.162-1.491l-.981.435a1.536,1.536,0,0,0-.893,1.652l.2,1.238a12.425,12.425,0,0,1-2.585-.764L84.478,96.6a.538.538,0,0,1,.132-.454l.213-.236a3.631,3.631,0,0,0-.056-4.9l-.114-.12a.539.539,0,0,1-.132-.5,3.625,3.625,0,0,0-1.709-4.018l-3.668-2.1q.163-.3.345-.6.212-.347.443-.676l2.844,1.134a1.536,1.536,0,0,0,1.578-.269l3.939-3.433a1.536,1.536,0,0,0,.48-.783L89.26,77.7c.312-.023.626-.037.94-.037a12.448,12.448,0,0,1,6.5,1.828q.146.089.288.181L95.59,81.2l-4.652.181a1.536,1.536,0,0,0-1.246.726l-2.1,3.391a1.536,1.536,0,0,0,.078,1.732L89,88.994a1.706,1.706,0,0,1,.341,1.029l-.012,2.306a3.486,3.486,0,0,0,4.08,3.456l2.562-.441a4.794,4.794,0,0,0,2.7-1.472,1.7,1.7,0,0,1,2.423-.077l.721.69c.031.029.062.056.095.082A12.547,12.547,0,0,1,100.871,96.7Zm1.794-5.579a4.771,4.771,0,0,0-6.256.673,1.706,1.706,0,0,1-.962.524l-2.562.441a.417.417,0,0,1-.487-.413l.012-2.306a4.8,4.8,0,0,0-.957-2.891l-.7-.93,1.118-1.8,4.477-.174a1.536,1.536,0,0,0,1.073-.5l1.92-2.1A12.58,12.58,0,0,1,102.666,91.12Z" transform="translate(-74.58 -74.58)" fill="#3f1d51"/>
          </g>
        </g>
        <g id="Group_5959" data-name="Group 5959" transform="translate(0)">
          <g id="Group_5958" data-name="Group 5958">
            <path id="Path_4708" data-name="Path 4708" d="M40.616,7.98l-.417.565C35.752,3.034,29.861,0,23.608,0A21.077,21.077,0,0,0,8.044,7.345C2.932,12.971,0,21.086,0,29.609a1.892,1.892,0,0,0,1.647,2.066,1.892,1.892,0,0,0,1.647-2.066,28.659,28.659,0,0,1,6.923-19.159A18.134,18.134,0,0,1,23.608,4.132C29,4.132,34.071,6.749,37.9,11.5c.021.025.043.048.064.072l-.489.662c-.617.836-.1,2.189.8,2.114l3.033-.252a1.167,1.167,0,0,0,.938-1.215l.108-4.005C42.39,7.712,41.248,7.123,40.616,7.98Z" transform="translate(0)" fill="#3f1d51"/>
          </g>
        </g>
        <g id="Group_5961" data-name="Group 5961" transform="translate(6.975 16.777)">
          <g id="Group_5960" data-name="Group 5960">
            <path id="Path_4709" data-name="Path 4709" d="M100.141,238.14a1.89,1.89,0,0,0-1.64,2.066,29.51,29.51,0,0,1-5.109,16.927c-3.838,5.434-9.348,8.551-15.118,8.551a18.025,18.025,0,0,1-13.333-6.318,1.76,1.76,0,0,0-.188-.177l.415-.565c.615-.836.1-2.19-.8-2.114l-3.02.252a1.165,1.165,0,0,0-.934,1.215l-.108,4.005c-.031,1.167,1.1,1.756,1.735.9l.518-.706a1.972,1.972,0,0,0,.22.3,20.95,20.95,0,0,0,15.5,7.344c6.705,0,13.109-3.622,17.568-9.936a34.3,34.3,0,0,0,5.939-19.673A1.89,1.89,0,0,0,100.141,238.14Z" transform="translate(-60.304 -238.14)" fill="#3f1d51"/>
          </g>
        </g>
      </g>
      <path id="Hexagon" d="M79.415,100.614H29.138L4,58.738,29.138,16.862H79.415l25.139,41.876Z" transform="translate(998.609 1448.356)" fill="none" stroke="#3f1d51" stroke-width="2"/>
    </g>
  </g>
</svg>
