<svg xmlns="http://www.w3.org/2000/svg" width="102.887" height="85.752" viewBox="0 0 102.887 85.752">
  <g id="Group_6052" data-name="Group 6052" transform="translate(-785.834 -41.124)">
    <g id="Group_5586" data-name="Group 5586" transform="translate(814.116 65.916)">
      <g id="ux-design">
        <path id="Path_105" data-name="Path 105" d="M32.68,89.36a.681.681,0,1,0-.48-.2A.682.682,0,0,0,32.68,89.36Z" transform="translate(-29.099 -85.099)" fill="#3f1d51"/>
        <path id="Path_106" data-name="Path 106" d="M56.68,89.36a.681.681,0,1,0-.48-.2A.681.681,0,0,0,56.68,89.36Z" transform="translate(-50.924 -85.099)" fill="#3f1d51"/>
        <path id="Path_107" data-name="Path 107" d="M80.68,89.36a.681.681,0,1,0-.48-.2A.682.682,0,0,0,80.68,89.36Z" transform="translate(-72.748 -85.099)" fill="#3f1d51"/>
        <path id="Path_108" data-name="Path 108" d="M112.68,89.36h27.557a.68.68,0,0,0,0-1.36H112.68a.68.68,0,0,0,0,1.36Z" transform="translate(-101.847 -85.099)" fill="#3f1d51"/>
        <path id="Path_109" data-name="Path 109" d="M448.68,89.36h1.45a.68.68,0,1,0,0-1.36h-1.45a.68.68,0,1,0,0,1.36Z" transform="translate(-407.39 -85.099)" fill="#3f1d51"/>
        <path id="Path_110" data-name="Path 110" d="M83.489,168H70.435a2.133,2.133,0,0,0-2.13,2.13v.045h-.771a2.133,2.133,0,0,0-2.13,2.13v5.847H63.863v-2.221a2.133,2.133,0,0,0-2.13-2.13H50.13a2.133,2.133,0,0,0-2.13,2.13v5.8a2.133,2.133,0,0,0,2.13,2.13h11.6a2.133,2.133,0,0,0,2.13-2.13v-2.221H65.4v5.847a2.133,2.133,0,0,0,2.13,2.13h.771v.045a2.133,2.133,0,0,0,2.13,2.13H83.489a2.133,2.133,0,0,0,2.13-2.13v-1.45a2.133,2.133,0,0,0-2.13-2.13H70.435a2.133,2.133,0,0,0-2.13,2.13v.045h-.771a.771.771,0,0,1-.771-.771v-5.847h1.541v.045a2.133,2.133,0,0,0,2.13,2.13H83.489a2.133,2.133,0,0,0,2.13-2.13v-1.45a2.133,2.133,0,0,0-2.13-2.13H70.435a2.133,2.133,0,0,0-2.13,2.13v.045H66.764v-5.847a.771.771,0,0,1,.771-.771h.771v.045a2.133,2.133,0,0,0,2.13,2.13H83.489a2.133,2.133,0,0,0,2.13-2.13v-1.45A2.133,2.133,0,0,0,83.489,168ZM62.5,181.733a.771.771,0,0,1-.771.771H50.13c-.425,0-.329.147-.329-.277v-5.773c0-.425-.1-1.292.329-1.292h11.6a.771.771,0,0,1,.771.771Zm7.161,4.351a.771.771,0,0,1,.771-.771H83.489a.771.771,0,0,1,.771.771v1.45a.771.771,0,0,1-.771.771H70.435a.771.771,0,0,1-.771-.771Zm0-7.977a.771.771,0,0,1,.771-.771H83.489a.771.771,0,0,1,.771.771v1.45a.771.771,0,0,1-.771.771H70.435a.771.771,0,0,1-.771-.771Zm14.594-6.527a.771.771,0,0,1-.771.771H70.435a.771.771,0,0,1-.771-.771v-1.45a.771.771,0,0,1,.771-.771H83.489a.771.771,0,0,1,.771.771Z" transform="translate(-43.649 -157.847)" fill="#3f1d51"/>
        <path id="Path_111" data-name="Path 111" d="M42.741,56H3.581A3.585,3.585,0,0,0,0,59.581V88.588a3.585,3.585,0,0,0,3.581,3.581h39.16a3.585,3.585,0,0,0,3.581-3.581V59.581A3.585,3.585,0,0,0,42.741,56ZM3.581,57.36h39.16a2.223,2.223,0,0,1,2.221,2.221V61.8H1.36V59.581A2.223,2.223,0,0,1,3.581,57.36Zm39.16,33.449H3.581A2.223,2.223,0,0,1,1.36,88.588V63.161h43.6V88.588A2.223,2.223,0,0,1,42.741,90.809Z" transform="translate(0 -56)" fill="#3f1d51"/>
      </g>
      <rect id="Rectangle_42" data-name="Rectangle 42" width="15" height="9" rx="2" transform="translate(5.161 16.085)" fill="#3f1d51"/>
    </g>
    <path id="Hexagon" d="M79.415,100.614H29.138L4,58.738,29.138,16.862H79.415l25.139,41.876Z" transform="translate(783 25.262)" fill="none" stroke="#3f1d51" stroke-width="2"/>
  </g>
</svg>
