<svg xmlns="http://www.w3.org/2000/svg" width="59.794" height="66.438" viewBox="0 0 59.794 66.438">
  <g id="accessibility-svgrepo-com" transform="translate(-2 -2)">
    <circle id="Ellipse_46" data-name="Ellipse 46" cx="6.338" cy="6.338" r="6.338" transform="translate(49.118 2)" fill="#401e52"/>
    <path id="Path_104" data-name="Path 104" d="M54.605,32.942,40.172,35.35,51.1,21.687a3.322,3.322,0,0,0-.754-4.84L30.415,3.56a3.319,3.319,0,0,0-4.192.415L12.936,17.263l4.7,4.7L28.994,10.6l8.584,5.724L28.671,27.457a19.642,19.642,0,0,0-18.27,2.5l4.82,4.82A13.206,13.206,0,0,1,33.339,52.893l4.82,4.82a19.709,19.709,0,0,0,3.222-15.832L51.828,40.14V59.47h6.644V36.217a3.315,3.315,0,0,0-3.867-3.275ZM21.931,59.47a13.206,13.206,0,0,1-11.407-20L5.7,34.653A19.9,19.9,0,0,0,33.461,62.41l-4.82-4.82a13.194,13.194,0,0,1-6.71,1.88Z" transform="translate(0 2.323)" fill="#401e52"/>
  </g>
</svg>
