<svg xmlns="http://www.w3.org/2000/svg" width="59.519" height="62.901" viewBox="0 0 59.519 62.901">
  <path id="smart-work-artificial-intelligence-ai-svgrepo-com" d="M34.513,27.185a6.341,6.341,0,0,1-7.928,2.87c-3.092-1.148-4.526-4.293-3.233-7.039a6.341,6.341,0,0,1,7.928-2.87c3.092,1.148,4.526,4.293,3.233,7.039ZM61.7,40.09A2.084,2.084,0,0,1,59.5,42.037h-3.57v6.689c0,5.192-4.751,9.41-10.6,9.41H41.119V64.9H12.445V44.658C.779,36.5-1.245,21.494,7.919,11.111A28.249,28.249,0,0,1,29.031,2c12.2,0,23.445,8.137,25.779,17.073.534,2,1.124,7.189,1.124,7.189l5.594,13.079a1.649,1.649,0,0,1,.169.749ZM40.416,23.416l3.43-1.9L42.412,18.4l-3.964.8a11.188,11.188,0,0,0-2.755-2.471l.928-3.495-3.514-1.3L30.943,14.98a13.861,13.861,0,0,0-3.936-.025l-2.108-3.1-3.542,1.273.9,3.495a11.227,11.227,0,0,0-2.783,2.446l-3.936-.824-1.49,3.12,3.43,1.922a9.733,9.733,0,0,0-.028,3.495l-3.43,1.922,1.434,3.12,3.936-.8A11.188,11.188,0,0,0,22.144,33.5l-.928,3.495,3.514,1.3,2.165-3.045a13.861,13.861,0,0,0,3.936.025l2.136,3.045,3.514-1.273-.9-3.519a11.227,11.227,0,0,0,2.783-2.446L42.3,31.9l1.462-3.12-3.43-1.922A7.5,7.5,0,0,0,40.416,23.416Z" transform="translate(-2.178 -2)" fill="#401e52"/>
</svg>
