<svg xmlns="http://www.w3.org/2000/svg" width="65.15" height="65.3" viewBox="0 0 65.15 65.3">
  <g id="cloud-networked-svgrepo-com" transform="translate(-0.053)">
    <g id="Group_5584" data-name="Group 5584" transform="translate(0.053)">
      <path id="Path_128" data-name="Path 128" d="M17.616,32.152A27.723,27.723,0,0,1,58.093,19.871c.007-.166.011-.332.011-.5A12.339,12.339,0,0,0,39.069,9a14.417,14.417,0,0,0-27.308,1.777c-.324-.028-.656-.05-.993-.05a10.716,10.716,0,0,0,0,21.433C11.74,32.158,14.3,32.155,17.616,32.152Z" transform="translate(-0.053)" fill="#401e52"/>
      <path id="Path_129" data-name="Path 129" d="M4.792,33.455a2.205,2.205,0,0,0-2.2,2.221V41.6a2.2,2.2,0,1,0,4.4,0V35.676A2.205,2.205,0,0,0,4.792,33.455Z" transform="translate(1.02 14.145)" fill="#401e52"/>
      <path id="Path_130" data-name="Path 130" d="M4.792,23.044a2.206,2.206,0,0,0-2.2,2.222v5.925a2.2,2.2,0,1,0,4.4,0V25.266A2.2,2.2,0,0,0,4.792,23.044Z" transform="translate(1.02 9.743)" fill="#401e52"/>
      <path id="Path_131" data-name="Path 131" d="M15.411,39.195H9.485a2.2,2.2,0,1,0,0,4.4h5.926a2.2,2.2,0,1,0,0-4.4Z" transform="translate(2.994 16.571)" fill="#401e52"/>
      <path id="Path_132" data-name="Path 132" d="M36.86,14.765A22.146,22.146,0,1,0,59,36.911,22.17,22.17,0,0,0,36.86,14.765ZM19.3,39.179h5.954a31.834,31.834,0,0,0,3.386,13.448A17.761,17.761,0,0,1,19.3,39.179Zm5.953-4.515H19.3a17.759,17.759,0,0,1,9.339-13.451A31.869,31.869,0,0,0,25.25,34.664Zm9.417,18.518c-2.42-2.1-4.566-7.4-4.961-14h4.961Zm0-18.518H29.706c.4-6.714,2.541-11.927,4.961-14.02Zm4.4,18.518v-14h4.946C43.618,45.782,41.492,51.086,39.069,53.182Zm0-18.518V20.644c2.423,2.093,4.546,7.306,4.946,14.02Zm15.351,0H48.465a31.833,31.833,0,0,0-3.388-13.453A17.754,17.754,0,0,1,54.42,34.664ZM45.081,52.628a31.814,31.814,0,0,0,3.388-13.45h5.956A17.777,17.777,0,0,1,45.081,52.628Z" transform="translate(6.146 6.243)" fill="#401e52"/>
    </g>
  </g>
</svg>
