<svg xmlns="http://www.w3.org/2000/svg" width="49.259" height="55" viewBox="0 0 49.259 55">
  <g id="database-svgrepo-com" transform="translate(-1.675)">
    <path id="Path_133" data-name="Path 133" d="M51.232,45.134A7.667,7.667,0,0,0,43.716,38.2a7.539,7.539,0,0,0-6.124,3.215,4.829,4.829,0,0,0-.834-.072,5.063,5.063,0,0,0-4.787,3.6,6.075,6.075,0,0,0-2.945,5.2,5.946,5.946,0,0,0,5.867,6.009H45.074c.057,0,.112,0,.162-.008s.117.008.178.008h4.073a5.677,5.677,0,0,0,1.745-11.026ZM49.486,54.27l-4.113,0-.161-.006-10.321.009a4.055,4.055,0,0,1-3.977-4.119A4.163,4.163,0,0,1,33.2,46.432l.411-.2.1-.449a3.171,3.171,0,0,1,3.051-2.543,3.035,3.035,0,0,1,.964.159l.734.247.386-.672a5.593,5.593,0,0,1,4.874-2.877,5.788,5.788,0,0,1,5.668,5.786l.01.768.755.146a3.782,3.782,0,0,1-.663,7.474Z" transform="translate(-4.08 -2.101)" fill="#401e52"/>
    <path id="Path_134" data-name="Path 134" d="M26.872,42.217a7.4,7.4,0,0,1,6.14-4.253A9.524,9.524,0,0,1,40,34.809a9.377,9.377,0,0,1,6.092,2.32c.085-.082.181-.163.256-.246V28a17.881,17.881,0,0,1-4.49,2.237,49.955,49.955,0,0,1-15.519,2.554q-1.166.038-2.328.039c-.776,0-1.556-.013-2.336-.04A49.838,49.838,0,0,1,6.128,30.223,17.8,17.8,0,0,1,1.676,28v8.883c2.543,2.808,11.074,5.4,22.337,5.4C24.99,42.28,25.938,42.253,26.872,42.217Z" transform="translate(0 -1.54)" fill="#401e52"/>
    <path id="Path_135" data-name="Path 135" d="M21.9,29.136c.291.009.582.017.877.022q.611.011,1.236.011c.416,0,.827,0,1.236-.01.295,0,.586-.014.877-.022l.312-.008c10.054-.339,17.555-2.755,19.912-5.356V14.889c-4.35,3.159-13.542,4.83-22.337,4.83S6.025,18.048,1.676,14.889v8.883c2.357,2.6,9.858,5.018,19.912,5.356Z" transform="translate(0 -0.819)" fill="#401e52"/>
    <path id="Path_136" data-name="Path 136" d="M46.351,10.684V8.505a.907.907,0,0,0-.121-.433C45.227,4.008,37.518,0,24.013,0,10.541,0,2.84,3.988,1.806,8.042a.955.955,0,0,0-.13.463v2.179c2.534,2.8,11,5.381,22.337,5.381S43.816,13.482,46.351,10.684Z" transform="translate(0)" fill="#401e52"/>
    <path id="Path_137" data-name="Path 137" d="M24.686,50.3a8.891,8.891,0,0,1,1.18-4.4c-.19,0-.373.007-.566.007C13.633,45.915,5.582,43.751,1.675,41v7.75a.889.889,0,0,0,.111.426C2.9,53.8,12.886,57.255,25.3,57.255c.9,0,1.778-.023,2.647-.059A8.887,8.887,0,0,1,24.686,50.3Z" transform="translate(0 -2.255)" fill="#401e52"/>
  </g>
</svg>
