<svg xmlns="http://www.w3.org/2000/svg" width="67.736" height="64.798" viewBox="0 0 67.736 64.798">
  <g id="web-development-svgrepo-com" transform="translate(0 -15.992)">
    <g id="Group_5583" data-name="Group 5583" transform="translate(0 15.992)">
      <g id="Group_5582" data-name="Group 5582">
        <path id="Path_118" data-name="Path 118" d="M45.879,72.716a3.075,3.075,0,0,1-.9-.885,3.236,3.236,0,0,1-.287-.527H4.587v-41.1h54.43V57.041a3.052,3.052,0,0,1,2.546,1.989,2.942,2.942,0,0,1,1.191-.373,2.912,2.912,0,0,1,.849.049V19.967a3.9,3.9,0,0,0-3.822-3.975H3.822A3.905,3.905,0,0,0,0,19.967V72.1a3.9,3.9,0,0,0,3.822,3.974H45.53a3.236,3.236,0,0,1-.211-2.2A3.193,3.193,0,0,1,45.879,72.716Zm8.941-50.05A1.44,1.44,0,0,1,56.231,21.2h1.411a1.44,1.44,0,0,1,1.411,1.468v1.663A1.44,1.44,0,0,1,57.642,25.8H56.231a1.44,1.44,0,0,1-1.411-1.467Zm-6.562,0A1.44,1.44,0,0,1,49.668,21.2H51.08a1.44,1.44,0,0,1,1.411,1.468v1.663A1.44,1.44,0,0,1,51.08,25.8H49.668a1.44,1.44,0,0,1-1.411-1.467Zm-6.563,0A1.44,1.44,0,0,1,43.106,21.2h1.411a1.44,1.44,0,0,1,1.411,1.468v1.663A1.44,1.44,0,0,1,44.517,25.8H43.106a1.44,1.44,0,0,1-1.411-1.467Z" transform="translate(0 -15.992)" fill="#401e52"/>
        <path id="Path_119" data-name="Path 119" d="M308.016,283.48l-.39-2.209a.547.547,0,0,0-.634-.444l-1.965.346a7.371,7.371,0,0,0-.895-1.546l1.283-1.53a.547.547,0,0,0-.068-.771l-1.718-1.442a.547.547,0,0,0-.771.067l-1.282,1.529a7.341,7.341,0,0,0-1.679-.611v-2a.547.547,0,0,0-.547-.547h-2.244a.548.548,0,0,0-.547.547v2a7.339,7.339,0,0,0-1.679.611l-1.282-1.528a.547.547,0,0,0-.771-.067l-1.718,1.442a.547.547,0,0,0-.067.771l1.283,1.529a7.394,7.394,0,0,0-.895,1.546l-1.965-.346a.548.548,0,0,0-.634.444l-.389,2.209a.547.547,0,0,0,.444.634l1.966.346a7.37,7.37,0,0,0,.309,1.76l-1.728,1a.547.547,0,0,0-.2.747l1.122,1.943a.547.547,0,0,0,.747.2l1.729-1a7.373,7.373,0,0,0,1.368,1.148l-.683,1.876a.547.547,0,0,0,.327.7l2.108.767a.546.546,0,0,0,.7-.327l.683-1.876a7.441,7.441,0,0,0,1.786,0l.683,1.876a.547.547,0,0,0,.514.36.539.539,0,0,0,.187-.033l2.108-.767a.547.547,0,0,0,.327-.7l-.683-1.876a7.411,7.411,0,0,0,1.368-1.148l1.729,1a.549.549,0,0,0,.274.073.555.555,0,0,0,.142-.019.547.547,0,0,0,.332-.255l1.122-1.943a.547.547,0,0,0-.2-.747l-1.728-1a7.373,7.373,0,0,0,.309-1.76l1.966-.347a.546.546,0,0,0,.353-.225A.537.537,0,0,0,308.016,283.48Zm-9.786,3.511a3.009,3.009,0,1,1,3.009-3.009A3.01,3.01,0,0,1,298.23,286.99Z" transform="translate(-240.288 -228.836)" fill="#401e52"/>
        <g id="Group_5581" data-name="Group 5581" transform="translate(13.679 20.205)">
          <path id="Path_120" data-name="Path 120" d="M90.144,174.549a1.832,1.832,0,0,0-1.057-1.656l-5.878-2.731,5.878-2.731a1.833,1.833,0,0,0,1.057-1.656v-.048a1.823,1.823,0,0,0-1.828-1.825,1.836,1.836,0,0,0-.769.169l-9.4,4.37a1.833,1.833,0,0,0-1.057,1.656v.131a1.835,1.835,0,0,0,1.057,1.656l9.4,4.37a1.827,1.827,0,0,0,2.6-1.657v-.048Z" transform="translate(-77.094 -158.699)" fill="#401e52"/>
          <path id="Path_121" data-name="Path 121" d="M172.442,129.731a1.833,1.833,0,0,0-1.475-.749h-.047a1.821,1.821,0,0,0-1.74,1.269l-6.191,19.184a1.827,1.827,0,0,0,1.74,2.382h.047a1.82,1.82,0,0,0,1.739-1.269l6.191-19.182A1.831,1.831,0,0,0,172.442,129.731Z" transform="translate(-150.12 -128.982)" fill="#401e52"/>
          <path id="Path_122" data-name="Path 122" d="M239.487,168.44l-9.4-4.37a1.827,1.827,0,0,0-2.6,1.656v.048a1.835,1.835,0,0,0,1.057,1.657l5.878,2.731-5.878,2.731a1.832,1.832,0,0,0-1.057,1.656v.048a1.827,1.827,0,0,0,2.6,1.656l9.4-4.37a1.834,1.834,0,0,0,1.056-1.656V170.1A1.834,1.834,0,0,0,239.487,168.44Z" transform="translate(-205.088 -158.7)" fill="#401e52"/>
        </g>
      </g>
    </g>
  </g>
</svg>
