<svg xmlns="http://www.w3.org/2000/svg" width="59.794" height="56.652" viewBox="0 0 59.794 56.652">
  <path id="global-server-svgrepo-com" d="M49.735,13.8h5.757a4.292,4.292,0,0,0,4.4-4.172V4.173A4.292,4.292,0,0,0,55.492,0H49.735a4.3,4.3,0,0,0-4.408,4.173v1.3H41.586a3.881,3.881,0,0,0-3.976,3.765V26.9H31.942C31.178,19.23,24.351,13.21,16.06,13.21,7.261,13.21.1,19.99.1,28.325S7.261,43.44,16.06,43.44c8.291,0,15.119-6.02,15.882-13.688h5.669V47.416a3.881,3.881,0,0,0,3.976,3.765h3.741v1.3a4.3,4.3,0,0,0,4.408,4.172h5.757a4.292,4.292,0,0,0,4.4-4.172V47.027a4.292,4.292,0,0,0-4.4-4.173H49.735a4.3,4.3,0,0,0-4.408,4.173v1.3H41.586a.939.939,0,0,1-.962-.911V29.753h4.7v1.3a4.3,4.3,0,0,0,4.408,4.173h5.757a4.292,4.292,0,0,0,4.4-4.173V25.6a4.292,4.292,0,0,0-4.4-4.173H49.735A4.3,4.3,0,0,0,45.327,25.6v1.3h-4.7V9.237a.939.939,0,0,1,.962-.911h3.741v1.3A4.3,4.3,0,0,0,49.735,13.8ZM11.084,16.677a14.466,14.466,0,0,0-2.3,4.449,18.438,18.438,0,0,0-4.741,1.907A13.042,13.042,0,0,1,11.084,16.677Zm-8.172,10a10.176,10.176,0,0,1,5.259-3.248,24.325,24.325,0,0,0-.478,4H2.834C2.853,27.179,2.879,26.928,2.912,26.68ZM2.967,30.3c-.046-.275-.094-.548-.121-.829H7.693a24.4,24.4,0,0,0,.478,4A10.348,10.348,0,0,1,2.967,30.3Zm1.248,3.672a18.572,18.572,0,0,0,4.564,1.8,14.938,14.938,0,0,0,2.029,4.094A13.072,13.072,0,0,1,4.215,33.968Zm10.769,6.783c-1.411-.541-2.777-2.117-3.752-4.46a30.033,30.033,0,0,0,3.752.344Zm0-6.148a27.376,27.376,0,0,1-4.486-.528,21.826,21.826,0,0,1-.659-4.609h5.145Zm0-7.172H9.839a21.841,21.841,0,0,1,.659-4.609,27.67,27.67,0,0,1,4.486-.528v5.137Zm0-7.168a30.314,30.314,0,0,0-3.752.346c.975-2.344,2.341-3.922,3.752-4.459Zm13.1,2.769a18.438,18.438,0,0,0-4.741-1.907,14.476,14.476,0,0,0-2.3-4.449A13.043,13.043,0,0,1,28.081,23.032ZM17.135,16.15c1.411.537,2.777,2.115,3.752,4.459a30.3,30.3,0,0,0-3.752-.346Zm0,6.145a27.661,27.661,0,0,1,4.486.528,21.731,21.731,0,0,1,.659,4.609H17.135Zm0,7.172h5.145a21.715,21.715,0,0,1-.659,4.609,27.368,27.368,0,0,1-4.486.528V29.467Zm0,11.285V36.635a30.013,30.013,0,0,0,3.752-.344C19.912,38.634,18.546,40.21,17.135,40.751Zm4.176-.885a14.838,14.838,0,0,0,2.029-4.094,18.642,18.642,0,0,0,4.565-1.8A13.074,13.074,0,0,1,21.311,39.867ZM29.153,30.3a10.343,10.343,0,0,1-5.2,3.171,24.635,24.635,0,0,0,.475-4h4.846C29.247,29.747,29.2,30.02,29.153,30.3Zm-4.725-2.864a24.6,24.6,0,0,0-.475-4,10.191,10.191,0,0,1,5.256,3.248c.033.247.059.5.078.751Z" transform="translate(-0.102)" fill="#401e52"/>
</svg>
