<svg xmlns="http://www.w3.org/2000/svg" width="60.327" height="44.513" viewBox="0 0 60.327 44.513">
  <g id="employees-svgrepo-com" transform="translate(2.24 -86.15) rotate(1)">
    <g id="Group_5570" data-name="Group 5570" transform="translate(38.995 86.028)">
      <g id="Group_5569" data-name="Group 5569">
        <path id="Path_112" data-name="Path 112" d="M347.233,86.028a9.241,9.241,0,0,0-3.958.887,13.708,13.708,0,0,1,0,16.83,9.3,9.3,0,1,0,3.958-17.716Z" transform="translate(-343.275 -86.028)" fill="#401e52"/>
      </g>
    </g>
    <g id="Group_5572" data-name="Group 5572" transform="translate(41.309 109.066)">
      <g id="Group_5571" data-name="Group 5571" transform="translate(0 0)">
        <path id="Path_113" data-name="Path 113" d="M363.509,271.182q-.825,0-1.644.08a21.6,21.6,0,0,1,4.447,4.682,21.366,21.366,0,0,1,3.753,10.062,21.622,21.622,0,0,1,.115,2.223,6.641,6.641,0,0,1-.382,2.223h8.535a2.224,2.224,0,0,0,2.223-2.223A17.066,17.066,0,0,0,363.509,271.182Z" transform="translate(-361.865 -271.182)" fill="#401e52"/>
      </g>
    </g>
    <g id="Group_5574" data-name="Group 5574" transform="translate(7.745 86.028)">
      <g id="Group_5573" data-name="Group 5573" transform="translate(0 0)">
        <path id="Path_114" data-name="Path 114" d="M73.348,99.826a13.707,13.707,0,0,1,2.128-12.91,9.3,9.3,0,1,0,0,16.83,13.693,13.693,0,0,1-2.128-3.919Z" transform="translate(-62.216 -86.029)" fill="#401e52"/>
      </g>
    </g>
    <g id="Group_5576" data-name="Group 5576" transform="translate(0 109.066)">
      <g id="Group_5575" data-name="Group 5575" transform="translate(0 0)">
        <path id="Path_115" data-name="Path 115" d="M17.047,271.182A17.066,17.066,0,0,0,0,288.229a2.224,2.224,0,0,0,2.223,2.223h8.535a6.644,6.644,0,0,1-.382-2.223,21.653,21.653,0,0,1,.114-2.223,21.365,21.365,0,0,1,3.753-10.062,21.6,21.6,0,0,1,4.447-4.682Q17.873,271.183,17.047,271.182Z" transform="translate(0 -271.182)" fill="#401e52"/>
      </g>
    </g>
    <g id="Group_5578" data-name="Group 5578" transform="translate(20.698 86.028)">
      <g id="Group_5577" data-name="Group 5577">
        <path id="Path_116" data-name="Path 116" d="M199.224,91.887a9.268,9.268,0,1,0,.663,3.442A9.3,9.3,0,0,0,199.224,91.887Z" transform="translate(-181.284 -86.028)" fill="#401e52"/>
      </g>
    </g>
    <g id="Group_5580" data-name="Group 5580" transform="translate(12.954 109.21)">
      <g id="Group_5579" data-name="Group 5579">
        <path id="Path_117" data-name="Path 117" d="M153.022,287.024a17.059,17.059,0,0,0-14.678-14.678v13.937a2.223,2.223,0,1,1-4.447,0V272.346a16.953,16.953,0,0,0-7.569,2.956,17.015,17.015,0,0,0-7.254,13.946,2.224,2.224,0,0,0,2.223,2.223h29.646a2.224,2.224,0,0,0,2.223-2.223A17.13,17.13,0,0,0,153.022,287.024Z" transform="translate(-119.074 -272.346)" fill="none" stroke="#401e52" stroke-width="3"/>
      </g>
    </g>
  </g>
</svg>
