<svg xmlns="http://www.w3.org/2000/svg" width="60.853" height="61.02" viewBox="0 0 60.853 61.02">
  <g id="job-search-svgrepo-com" transform="matrix(0.998, -0.07, 0.07, 0.998, -0.02, 3.689)">
    <g id="Group_5564" data-name="Group 5564" transform="translate(0 0.288)">
      <g id="Group_5563" data-name="Group 5563">
        <path id="Path_98" data-name="Path 98" d="M55.152,47.112l-9.257-9.286a5.968,5.968,0,0,0-7.215-.958l-2.985-3a20.273,20.273,0,1,0-2.233,2.243l2.985,3a6.071,6.071,0,0,0-.785,2.975,6,6,0,0,0,1.762,4.26L46.8,55.767a6.013,6.013,0,1,0,8.349-8.655ZM20.288,37.826a16.969,16.969,0,0,1-11.075-4.1A11.712,11.712,0,0,1,15.777,26.5l3.187,4.913a1.576,1.576,0,0,0,2.648,0L24.8,26.5a11.684,11.684,0,0,1,6.564,7.224A17.029,17.029,0,0,1,20.288,37.826Zm4.331-14.774a1.573,1.573,0,0,0-1.784.654l-2.547,3.922-2.536-3.922a1.573,1.573,0,0,0-1.784-.654,14.878,14.878,0,0,0-9.179,8.114A17.065,17.065,0,0,1,3.669,24.7H5.947a1.589,1.589,0,0,0,0-3.178H3.187c-.011-.293-.022-.586-.022-.89a17.023,17.023,0,0,1,.157-2.288H9.9a1.589,1.589,0,0,0,0-3.178H4.062A17.127,17.127,0,1,1,33.8,31.177,14.9,14.9,0,0,0,24.619,23.052ZM53.233,53.3a3,3,0,0,1-4.185.214l-9.381-9.421a2.715,2.715,0,0,1,0-4.012,2.775,2.775,0,0,1,3.995,0l9.257,9.286A2.93,2.93,0,0,1,53.233,53.3Z" transform="translate(0 -0.288)" fill="#401e52"/>
      </g>
    </g>
    <g id="Group_5566" data-name="Group 5566" transform="translate(12.763 6.721)">
      <g id="Group_5565" data-name="Group 5565">
        <path id="Path_99" data-name="Path 99" d="M124.539,53.488a7.739,7.739,0,1,0,7.739,7.739A7.746,7.746,0,0,0,124.539,53.488Zm0,12.056a4.317,4.317,0,1,1,4.329-4.317A4.33,4.33,0,0,1,124.539,65.544Z" transform="translate(-116.8 -53.488)" fill="#401e52"/>
      </g>
    </g>
  </g>
</svg>
