<svg xmlns="http://www.w3.org/2000/svg" width="60.853" height="63.186" viewBox="0 0 60.853 63.186">
  <g id="responsive-devices-svgrepo-com" transform="translate(-8.697)">
    <path id="Path_123" data-name="Path 123" d="M375.641,129.817H366.5a2,2,0,0,0-1.994,1.995v17.322a2,2,0,0,0,1.994,1.995h9.146a1.994,1.994,0,0,0,1.992-1.995V131.812A2,2,0,0,0,375.641,129.817Zm-.1,1.995v15.441h-8.956l-.089-15.34Zm-5.47,17.271a1,1,0,1,1,1,1A1,1,0,0,1,370.07,149.083Z" transform="translate(-308.084 -112.406)" fill="#401e52"/>
    <path id="Path_124" data-name="Path 124" d="M23.1,29.076v5.146H21.447a2.095,2.095,0,0,0,0,4.189H35.1a2.095,2.095,0,1,0,0-4.189H33.437V29.076H43.944a3.9,3.9,0,0,0,3.9-3.9V3.9a3.9,3.9,0,0,0-3.9-3.9H12.6A3.9,3.9,0,0,0,8.7,3.9V25.175a3.9,3.9,0,0,0,3.9,3.9ZM12.886,4.189H43.656v20.7H12.886Z" transform="translate(0 0)" fill="#401e52"/>
    <path id="Path_125" data-name="Path 125" d="M172.259,298.622H149.4a3.926,3.926,0,0,0-3.921,3.921v15.293a3.926,3.926,0,0,0,3.921,3.921h22.857a3.926,3.926,0,0,0,3.921-3.921V302.543A3.926,3.926,0,0,0,172.259,298.622Zm-24.082,13.034a1.468,1.468,0,1,1,1.469-1.467A1.465,1.465,0,0,1,148.177,311.656Zm24.862,6.18a.782.782,0,0,1-.78.78H150.725V301.763h21.535a.782.782,0,0,1,.78.78v15.293Z" transform="translate(-118.439 -258.571)" fill="#401e52"/>
    <path id="Path_126" data-name="Path 126" d="M29.078,262.063v-21.3H25.937v22.869a1.57,1.57,0,0,0,1.57,1.57H38.033v-3.141H29.078Z" transform="translate(-14.928 -208.474)" fill="#401e52"/>
    <path id="Path_127" data-name="Path 127" d="M397.563,315.352v7.554h-3.319v3.141h4.891a1.57,1.57,0,0,0,1.57-1.57V311.033h-3.142Z" transform="translate(-333.837 -269.317)" fill="#401e52"/>
  </g>
</svg>
