<svg xmlns="http://www.w3.org/2000/svg" width="69" height="69" viewBox="0 0 69 69">
  <g id="Group_5890" data-name="Group 5890" transform="translate(-1795 -105)">
    <g id="Ellipse_208" data-name="Ellipse 208" transform="translate(1795 105)" fill="#3f1d51" stroke="#3f1d51" stroke-width="2">
      <circle cx="34.5" cy="34.5" r="34.5" stroke="none"/>
      <circle cx="34.5" cy="34.5" r="33.5" fill="none"/>
    </g>
    <g id="accessibility-svgrepo-com_3_" data-name="accessibility-svgrepo-com (3)" transform="translate(1814.119 122.515)">
      <path id="Path_1756" data-name="Path 1756" d="M204.2,8.409a4.2,4.2,0,1,1,4.2-4.2A4.2,4.2,0,0,1,204.2,8.409Z" transform="translate(-188.588)" fill="#faf8fa"/>
      <path id="Path_1757" data-name="Path 1757" d="M76.841,112.061l-.034.009h0l-.032.01c-.075.021-.15.044-.225.067-1.4.41-8.179,2.322-12.956,2.322-4.44,0-10.608-1.652-12.581-2.213a5.54,5.54,0,0,0-.6-.194c-1.427-.375-2.4,1.074-2.4,2.4s1.179,1.936,2.369,2.385v.021l7.149,2.233c.731.28.926.566,1.021.814a7.149,7.149,0,0,1-.026,2.919l-.435,3.379L55.671,139.44q-.011.054-.02.11l-.017.1h0a2.158,2.158,0,0,0,2.4,2.389c1.472,0,2.121-1.016,2.4-2.4h0s2.1-11.831,3.153-11.831,3.217,11.831,3.217,11.831h0c.282,1.382.931,2.4,2.4,2.4a2.158,2.158,0,0,0,2.4-2.4c-.016-.1-.035-.206-.057-.3l-2.45-13.119-.435-3.379c-.315-1.968-.062-2.618.024-2.771l.006-.011a2.677,2.677,0,0,1,1.312-.81l6.7-2.343a1.269,1.269,0,0,0,.122-.039c1.2-.451,2.4-1.074,2.4-2.4S78.268,111.687,76.841,112.061Z" transform="translate(-48.01 -103.592)" fill="#faf8fa"/>
    </g>
  </g>
</svg>
