<svg xmlns="http://www.w3.org/2000/svg" width="58.634" height="58.634" viewBox="0 0 58.634 58.634">
  <defs>
    <style>
      .cls-1 {
        fill: #3f1d51;
      }

      .cls-2 {
        fill: #faf8fa;
      }
    </style>
  </defs>
  <g id="Group_6537" data-name="Group 6537" transform="translate(-1765.143 -6695.006)">
    <g id="Group_5947" data-name="Group 5947">
      <g id="linkedin-svgrepo-com" transform="translate(1765.143 6695.006)">
        <ellipse id="Ellipse_12" data-name="Ellipse 12" class="cls-1" cx="29.317" cy="29.317" rx="29.317" ry="29.317" transform="translate(0 0)"/>
      </g>
      <path id="instagram-svgrepo-com" class="cls-2" d="M14.294,0C10.409,0,9.924.018,8.4.082A10.768,10.768,0,0,0,4.933.736,7.023,7.023,0,0,0,2.4,2.361,6.8,6.8,0,0,0,.751,4.849,10.285,10.285,0,0,0,.085,8.263C.016,9.759,0,10.234,0,14.055s.019,4.3.083,5.792A10.309,10.309,0,0,0,.751,23.26,6.884,6.884,0,0,0,2.4,25.749a6.942,6.942,0,0,0,2.531,1.624,10.915,10.915,0,0,0,3.471.655c1.521.068,2,.082,5.89.082s4.369-.018,5.89-.082a10.939,10.939,0,0,0,3.471-.655,7.023,7.023,0,0,0,2.531-1.624,6.768,6.768,0,0,0,1.652-2.489,10.424,10.424,0,0,0,.666-3.413c.069-1.5.083-1.971.083-5.792s-.019-4.3-.083-5.792a10.418,10.418,0,0,0-.666-3.413,6.884,6.884,0,0,0-1.652-2.489A6.906,6.906,0,0,0,23.654.736,10.793,10.793,0,0,0,20.184.082C18.662.014,18.179,0,14.294,0Zm0,2.53c3.815,0,4.271.018,5.779.082a8.025,8.025,0,0,1,2.651.486,4.465,4.465,0,0,1,1.647,1.052,4.326,4.326,0,0,1,1.065,1.616,7.666,7.666,0,0,1,.494,2.607c.064,1.483.083,1.932.083,5.683s-.019,4.2-.088,5.683a7.882,7.882,0,0,1-.5,2.607A4.666,4.666,0,0,1,22.7,25.013a8.031,8.031,0,0,1-2.661.486c-1.516.063-1.963.082-5.788.082s-4.271-.018-5.789-.087A8.329,8.329,0,0,1,5.8,25a4.492,4.492,0,0,1-1.643-1.053,4.215,4.215,0,0,1-1.069-1.62,7.746,7.746,0,0,1-.5-2.617c-.051-1.473-.075-1.93-.075-5.674s.024-4.2.075-5.692a7.756,7.756,0,0,1,.5-2.617,4.122,4.122,0,0,1,1.069-1.62A4.27,4.27,0,0,1,5.8,3.052a8.082,8.082,0,0,1,2.648-.489c1.516-.054,1.963-.073,5.783-.073Zm0,4.311a7.216,7.216,0,1,0,7.337,7.215,7.274,7.274,0,0,0-7.337-7.215Zm0,11.9a4.686,4.686,0,1,1,4.764-4.685A4.722,4.722,0,0,1,14.294,18.742ZM23.642,6.553a1.717,1.717,0,1,1-1.718-1.684A1.7,1.7,0,0,1,23.642,6.553Z" transform="translate(1780.167 6710.269)"/>
    </g>
  </g>
</svg>
