<svg xmlns="http://www.w3.org/2000/svg" width="37.769" height="37.77" viewBox="0 0 37.769 37.77">
  <g id="map-svgrepo-com_1_" data-name="map-svgrepo-com (1)" transform="translate(0 -4.512)">
    <path id="Path_144" data-name="Path 144" d="M37.155,4.941a1.2,1.2,0,0,0-1.336-.348L25.643,8.56,13.961,4.573a1.1,1.1,0,0,0-.721,0L1.168,8.692A2.1,2.1,0,0,0,0,10.736V40.179a2.473,2.473,0,0,0,.6,1.653,1.292,1.292,0,0,0,.945.449,1.153,1.153,0,0,0,.368-.068l11.7-4.078,11.7,4.078a1.091,1.091,0,0,0,.785-.013l10.564-4.21a2.137,2.137,0,0,0,1.111-2.023V6.619A2.476,2.476,0,0,0,37.155,4.941ZM15.092,12.335a2.82,2.82,0,0,1,.655-1.879,1.357,1.357,0,0,1,1.465-.443l5.629,1.919a2.373,2.373,0,0,1,1.307,2.32V34.414a2.812,2.812,0,0,1-.66,1.881,1.356,1.356,0,0,1-1.47.436L16.39,34.769a2.376,2.376,0,0,1-1.3-2.315V12.335ZM3.019,14.261a2.372,2.372,0,0,1,1.306-2.32l5.629-1.916a1.355,1.355,0,0,1,1.464.443,2.817,2.817,0,0,1,.655,1.879V32.468a2.37,2.37,0,0,1-1.3,2.315L5.145,36.746a1.353,1.353,0,0,1-1.47-.436,2.814,2.814,0,0,1-.658-1.884V14.261ZM34.752,32.582a2.421,2.421,0,0,1-1.245,2.3l-4.159,1.651a1.345,1.345,0,0,1-1.5-.386,2.787,2.787,0,0,1-.682-1.906V14.16a2.411,2.411,0,0,1,1.254-2.3l4.161-1.62a1.342,1.342,0,0,1,1.5.4,2.811,2.811,0,0,1,.677,1.9V32.584h0Z" fill="#3f1d51"/>
  </g>
</svg>
