<svg xmlns="http://www.w3.org/2000/svg" width="58.634" height="58.634" viewBox="0 0 58.634 58.634">
  <g id="Group_5851" data-name="Group 5851" transform="translate(-72 -6140.264)">
    <g id="linkedin-svgrepo-com" transform="translate(72 6140.264)">
      <ellipse id="Ellipse_12" data-name="Ellipse 12" cx="29.317" cy="29.317" rx="29.317" ry="29.317" transform="translate(0 0)" fill="#3f1d51"/>
      <g id="Group_5324" data-name="Group 5324" transform="translate(14.146 12.527)">
        <path id="Path_74" data-name="Path 74" d="M59.756,43.118V55.205H52.748V43.928c0-2.831-1.012-4.765-3.549-4.765A3.833,3.833,0,0,0,45.6,41.726a4.8,4.8,0,0,0-.232,1.708V55.2H38.365s.094-19.1,0-21.076h7.009v2.987c-.014.024-.034.047-.047.069h.047v-.069a6.958,6.958,0,0,1,6.316-3.482c4.61,0,8.067,3.012,8.067,9.485ZM31.034,23.969a3.652,3.652,0,1,0-.092,7.284h.045a3.653,3.653,0,1,0,.047-7.284ZM27.485,55.205H34.49V34.128H27.485Z" transform="translate(-27.068 -23.969)" fill="#f1f2f2"/>
      </g>
    </g>
  </g>
</svg>
