<svg xmlns="http://www.w3.org/2000/svg" width="58.006" height="58.006" viewBox="0 0 58.006 58.006">
  <g id="Group_5853" data-name="Group 5853" transform="translate(-240.436 -6141.082)">
    <g id="twitter-svgrepo-com" transform="translate(240.436 6141.082)">
      <ellipse id="Ellipse_13" data-name="Ellipse 13" cx="29.003" cy="29.003" rx="29.003" ry="29.003" transform="translate(0 0)" fill="#3f1d51"/>
      <g id="Group_5325" data-name="Group 5325" transform="translate(12.978 17.593)">
        <path id="Path_75" data-name="Path 75" d="M58.894,37.279a13.832,13.832,0,0,1-3.982,1.09,6.951,6.951,0,0,0,3.049-3.835,13.878,13.878,0,0,1-4.4,1.682,6.938,6.938,0,0,0-11.814,6.324A19.679,19.679,0,0,1,27.455,35.3,6.94,6.94,0,0,0,29.6,44.552a6.884,6.884,0,0,1-3.14-.868c0,.029,0,.059,0,.088a6.937,6.937,0,0,0,5.561,6.8,6.96,6.96,0,0,1-3.13.12A6.94,6.94,0,0,0,35.367,55.5,13.995,13.995,0,0,1,25.1,58.374a19.61,19.61,0,0,0,10.626,3.115c12.752,0,19.725-10.564,19.725-19.725,0-.3-.007-.6-.02-.9a14.058,14.058,0,0,0,3.46-3.588Z" transform="translate(-25.103 -34.028)" fill="#f1f2f2"/>
      </g>
    </g>
  </g>
</svg>
